<svg width="1200" height="600" xmlns="http://www.w3.org/2000/svg">
 <!-- Created with Method Draw - http://github.com/duopixel/Method-Draw/ -->
 <defs>
  <filter id="svg_34_blur" x="-50%" y="-50%" width="200%" height="200%">
   <feGaussianBlur stdDeviation="0"/>
  </filter>
 </defs>
 <g>
  <title>background</title>
  <rect x="-1" y="-1" width="1202" height="602" id="canvas_background" fill="none"/>
  <g id="canvasGrid" display="none">
   <rect id="svg_1" width="100%" height="100%" x="0" y="0" stroke-width="0" fill="url(#gridpattern)"/>
  </g>
 </g>
 <g>
  <title>Layer 1</title>
  <ellipse fill="#fff" stroke-width="1.5" stroke-opacity="null" fill-opacity="null" cx="373.419803" cy="150.233995" id="svg_3" rx="44.779967" ry="44.779967" stroke="null"/>
  <ellipse fill="#fff" stroke-width="1.5" stroke-opacity="null" fill-opacity="null" cx="363.69009" cy="303.839126" id="svg_4" rx="44.779969" ry="44.779969" stroke="null"/>
  <ellipse fill="#fff" stroke-width="1.5" stroke-opacity="null" fill-opacity="null" cx="329.476034" cy="444.923566" id="svg_5" rx="43.569701" ry="43.569701" stroke="null"/>
  <ellipse fill="#fff" stroke-width="1.5" stroke-opacity="null" fill-opacity="null" cx="938.926036" cy="427.893013" id="svg_10" rx="57.487797" ry="57.487797" stroke="null"/>
  <path fill="#fff" stroke-width="1.5" stroke-opacity="null" fill-opacity="null" d="m320.20465,419.44422c0,0 328.36699,-104.74413 331.03666,-101.47088l-331.03666,101.47088z" id="svg_11" stroke="null" transform="rotate(-10.967580795288086 485.7229919433594,368.6712036132815) "/>
  <path fill="#fff" stroke-width="1.5" stroke-opacity="null" fill-opacity="null" d="m614.95182,304.57016c0,0 315.13783,-168.18008 319.92813,-166.43982l-319.92813,166.43982z" id="svg_14" stroke="null"/>
  <path fill="#fff" stroke-width="1.5" stroke-opacity="null" fill-opacity="null" d="m566.24662,271.07385c0,0 -156.63185,-93.52695 -154.71695,-95.33103l154.71695,95.33103z" id="svg_15" stroke="null"/>
  <path fill="#fff" stroke-width="1.5" stroke-opacity="null" fill-opacity="null" d="m618.49068,313.66574c0,0 324.40168,110.68842 321.12502,114.08052l-321.12502,-114.08052z" id="svg_16" stroke="null"/>
  <ellipse fill="#ffffff" stroke-width="1.5" stroke-opacity="null" cx="240.406437" cy="174.277684" id="svg_18" rx="21.785207" ry="21.785207" stroke="null"/>
  <ellipse fill="#ffffff" stroke-width="1.5" stroke-opacity="null" cx="331.178137" cy="30.25326" id="svg_19" rx="21.785207" ry="21.785207" stroke="null"/>
  <ellipse fill="#ffffff" stroke-width="1.5" stroke-opacity="null" cx="474.571693" cy="82.651318" id="svg_20" rx="21.785207" ry="21.785207" stroke="null"/>
  <ellipse fill="#ffffff" stroke-width="1.5" stroke-opacity="null" cx="209.775569" cy="447.185694" id="svg_21" rx="21.785207" ry="21.785207" stroke="null"/>
  <ellipse fill="#ffffff" stroke-width="1.5" stroke-opacity="null" cx="289.654661" cy="559.742597" id="svg_22" rx="21.785207" ry="21.785207" stroke="null"/>
  <ellipse fill="#ffffff" stroke-width="1.5" stroke-opacity="null" cx="428.83792" cy="524.644211" id="svg_23" rx="21.785207" ry="21.785207" stroke="null"/>
  <ellipse fill="#ffffff" stroke-width="1.5" stroke-opacity="null" cx="861.750464" cy="64.875118" id="svg_24" rx="21.785207" ry="21.785207" stroke="null"/>
  <ellipse fill="#ffffff" stroke-width="1.5" stroke-opacity="null" cx="1059.027588" cy="181.062889" id="svg_25" rx="21.785207" ry="21.785207" stroke="null"/>
  <ellipse fill="#ffffff" stroke-width="1.5" stroke-opacity="null" cx="1082.023105" cy="50.351651" id="svg_26" rx="21.785207" ry="21.785207" stroke="null"/>
  <ellipse fill="#ffffff" stroke-width="1.5" stroke-opacity="null" cx="1020.139496" cy="353.302099" id="svg_27" rx="21.785207" ry="21.785207" stroke="null"/>
  <ellipse fill="#ffffff" stroke-width="1.5" stroke-opacity="null" cx="1124.224365" cy="423.498898" id="svg_28" rx="21.785207" ry="21.785207" stroke="null"/>
  <ellipse fill="#ffffff" stroke-width="1.5" stroke-opacity="null" cx="1016.508619" cy="555.4204" id="svg_29" rx="21.785207" ry="21.785207" stroke="null"/>
  <path fill="#fff" stroke-width="1.5" stroke-opacity="null" fill-opacity="null" d="m253.60226,173.20059c0,0 82.02476,-17.66079 82.2882,-16.33356l-82.2882,16.33356z" id="svg_32" stroke="null"/>
  <path fill="#fff" stroke-width="1.5" stroke-opacity="null" fill-opacity="null" d="m392.08798,107.11483c0,0 83.85025,3.01652 83.7798,4.36781l-83.7798,-4.36781z" id="svg_33" stroke="null" transform="rotate(-38.089229583740234 433.97790527343744,109.29873657226565) "/>
  <path fill="#fff" stroke-width="1.5" stroke-opacity="null" fill-opacity="null" d="m334.22787,37.48385c0,0 31.20673,77.88521 29.94273,78.36815l-29.94273,-78.36815z" id="svg_35" stroke="null"/>
  <path fill="#fff" stroke-width="1.5" stroke-opacity="null" fill-opacity="null" d="m952.21074,121.47232c0,0 109.62902,-60.95264 110.52031,-59.04787l-110.52031,59.04787z" id="svg_36" stroke="null"/>
  <path fill="#fff" stroke-width="1.5" stroke-opacity="null" fill-opacity="null" d="m860.58887,62.78043c0,0 63.47451,54.87213 62.57319,55.88138l-62.57319,-55.88138z" id="svg_37" stroke="null"/>
  <ellipse fill="#fff" stroke-width="1.5" stroke-opacity="null" fill-opacity="null" cx="938.69009" cy="135.839126" id="svg_100" rx="44.779969" ry="44.779969" stroke="null"/>
  <path fill="#fff" stroke-width="1.5" stroke-opacity="null" fill-opacity="null" d="m959.21051,150.71776c0,0 83.59054,25.12953 83.18784,26.46266l-83.18784,-26.46266z" id="svg_38" stroke="null"/>
  <path fill="#fff" stroke-width="1.5" stroke-opacity="null" fill-opacity="null" d="m967.92213,396.44938c0,0 50.2566,-42.60186 50.91038,-41.71153l-50.91038,41.71153z" id="svg_39" stroke="null"/>
  <path fill="#fff" stroke-width="1.5" stroke-opacity="null" fill-opacity="null" d="m982.94937,433.84775c0,0 117.91386,-6.49124 117.91328,-4.53196l-117.91328,4.53196z" id="svg_40" stroke="null"/>
  <path fill="#fff" stroke-width="1.5" stroke-opacity="null" fill-opacity="null" d="m292.20252,548.8392c0,0 25.48141,-72.88495 26.70675,-72.00836l-26.70675,72.00836z" id="svg_42" stroke="null"/>
  <path fill="#fff" stroke-width="1.5" stroke-opacity="null" fill-opacity="null" d="m965.90068,477.00763c0,0 42.63163,61.3879 41.64863,62.06584l-41.64863,-62.06584z" id="svg_41" stroke="null"/>
  <path fill="#fff" stroke-width="1.5" stroke-opacity="null" fill-opacity="null" d="m350.77605,465.66002c0,0 63.18394,44.37687 62.00664,45.317l-62.00664,-45.317z" id="svg_44" stroke="null"/>
  <path fill="#fff" stroke-width="1.5" stroke-opacity="null" fill-opacity="null" d="m220.02639,452.52999c0,0 76.91645,-6.73626 76.62113,-5.25888l-76.62113,5.25888z" id="svg_45" stroke="null"/>
  <text fill="#ff7f00" stroke-width="0" stroke-opacity="null" x="1396.556584" y="200.389211" id="svg_52" font-size="24"  font-family="Arvo, sans-serif" text-anchor="start" xml:space="preserve" transform="matrix(0.6051347087503274,0,0,0.6051347087503274,59.00571195369366,19.860875801306182) " stroke="null">BANKING</text>
  <text fill="#ff7f00" stroke-width="0" stroke-opacity="null" x="469.771952" y="213.176883" id="svg_53" font-size="24"  font-family="Arvo, sans-serif" text-anchor="start" xml:space="preserve" transform="matrix(0.6051347087503274,0,0,0.6051347087503274,59.00571195369366,19.860875801306182) " stroke="null">HEALTH</text>
  <text fill="#ff7f00" stroke-width="0" stroke-opacity="null" x="483.618906" y="239.177307" id="svg_55" font-size="24"  font-family="Arvo, sans-serif" text-anchor="start" xml:space="preserve" transform="matrix(0.6051347087503274,0,0,0.6051347087503274,59.00571195369366,19.860875801306182) " stroke="null">CARE</text>
  <text fill="#ff7f00" stroke-width="0" stroke-opacity="null" x="403.153425" y="710.164855" id="svg_56" font-size="24"  font-family="Arvo, sans-serif" text-anchor="start" xml:space="preserve" transform="matrix(0.6051347087503274,0,0,0.6051347087503274,59.00571195369366,19.860875801306182) " stroke="null">TEL CO.</text>
  <text fill="#ff7f00" stroke-width="0" stroke-opacity="null" x="1384.293916" y="685.022024" id="svg_57" font-size="24"  font-family="Arvo, sans-serif" text-anchor="start" xml:space="preserve" stroke="null" transform="matrix(0.6051347087503274,0,0,0.6051347087503274,59.00571195369366,19.860875801306182) ">INSURANCE</text>
  <text fill="#ff7f00" stroke-width="0" stroke-opacity="null" fill-opacity="null" x="653.581729" y="38.752305" id="svg_58" font-size="24"  font-family="Arvo, sans-serif" text-anchor="start" xml:space="preserve" transform="matrix(0.33214777725425104,0,0,0.33214777725425104,100.24412461109556,15.684525597118585) " stroke="null">BLOCK</text>
  <text fill="#ff7f00" stroke-width="0" stroke-opacity="null" fill-opacity="null" x="653.581729" y="66.991969" id="svg_59" font-size="24"  font-family="Arvo, sans-serif" text-anchor="start" xml:space="preserve" transform="matrix(0.33214777725425104,0,0,0.33214777725425104,100.24412461109556,15.684525597118585) " stroke="null">CHAIN</text>
  <text fill="#ff7f00" stroke-width="0" stroke-opacity="null" fill-opacity="null" x="2917.774685" y="102.904721" id="svg_61" font-size="24"  font-family="Arvo, sans-serif" text-anchor="start" xml:space="preserve" transform="matrix(0.33214777725425104,0,0,0.33214777725425104,100.24412461109556,15.684525597118585) " stroke="null">BLOCK</text>
  <text fill="#ff7f00" stroke-width="0" stroke-opacity="null" fill-opacity="null" x="2917.774685" y="131.144385" id="svg_62" font-size="24"  font-family="Arvo, sans-serif" text-anchor="start" xml:space="preserve" transform="matrix(0.33214777725425104,0,0,0.33214777725425104,100.24412461109556,15.684525597118585) " stroke="null">CHAIN</text>
  <text fill="#ff7f00" stroke-width="0" stroke-opacity="null" fill-opacity="null" x="284.434944" y="1293.997146" id="svg_63" font-size="24"  font-family="Arvo, sans-serif" text-anchor="start" xml:space="preserve" transform="matrix(0.33214777725425104,0,0,0.33214777725425104,100.24412461109556,15.684525597118585) " stroke="null">BLOCK</text>
  <text fill="#ff7f00" stroke-width="0" stroke-opacity="null" fill-opacity="null" x="284.434944" y="1322.23681" id="svg_64" font-size="24"  font-family="Arvo, sans-serif" text-anchor="start" xml:space="preserve" transform="matrix(0.33214777725425104,0,0,0.33214777725425104,100.24412461109556,15.684525597118585) " stroke="null">CHAIN</text>
  <text fill="#ff7f00" stroke-width="0" stroke-opacity="null" fill-opacity="null" x="2720.532749" y="1623.496866" id="svg_65" font-size="24"  font-family="Arvo, sans-serif" text-anchor="start" xml:space="preserve" stroke="null" transform="matrix(0.33214777725425104,0,0,0.33214777725425104,100.24412461109556,15.684525597118585) ">BLOCK</text>
  <text fill="#ff7f00" stroke-width="0" stroke-opacity="null" fill-opacity="null" x="2720.532749" y="1651.73653" id="svg_66" font-size="24"  font-family="Arvo, sans-serif" text-anchor="start" xml:space="preserve" stroke="null" transform="matrix(0.33214777725425104,0,0,0.33214777725425104,100.24412461109556,15.684525597118585) ">CHAIN</text>
  <text fill="#ff7f00" stroke-width="0" stroke-opacity="null" fill-opacity="null" x="186.526613" y="463.402723" id="svg_67" font-size="24"  font-family="Arvo, sans-serif" text-anchor="start" xml:space="preserve" transform="matrix(0.6537683655295481,0,0,0.6537683655295481,106.10221919752661,-123.91181706186923) " stroke="null">A.I.</text>
  <text fill="#ff7f00" stroke-width="0" stroke-opacity="null" fill-opacity="null" x="1140.623098" y="297.914837" id="svg_69" font-size="24"  font-family="Arvo, sans-serif" text-anchor="start" xml:space="preserve" transform="matrix(0.6537683655295481,0,0,0.6537683655295481,106.10221919752661,-123.91181706186923) " stroke="null">A.I.</text>
  <text fill="#ff7f00" stroke-width="0" stroke-opacity="null" fill-opacity="null" x="263.705696" y="1054.85081" id="svg_70" font-size="24"  font-family="Arvo, sans-serif" text-anchor="start" xml:space="preserve" transform="matrix(0.6537683655295481,0,0,0.6537683655295481,106.10221919752661,-123.91181706186923) " stroke="null">A.I.</text>
  <text fill="#ff7f00" stroke-width="0" stroke-opacity="null" fill-opacity="null" x="955.52512" y="1529.608497" id="svg_71" font-size="24"  font-family="Arvo, sans-serif" text-anchor="start" xml:space="preserve" transform="matrix(0.33214777725425104,0,0,0.33214777725425104,100.24412461109556,15.684525597118585) " stroke="null">DATA</text>
  <text fill="#ff7f00" stroke-width="0" stroke-opacity="null" fill-opacity="null" x="937.322015" y="1552.38729" id="svg_72" font-size="24"  font-family="Arvo, sans-serif" text-anchor="start" xml:space="preserve" transform="matrix(0.33214777725425104,0,0,0.33214777725425104,100.24412461109556,15.684525597118585) " stroke="null">SCIENCE</text>
  <text fill="#ff7f00" stroke-width="0" stroke-opacity="null" fill-opacity="null" x="3051.544109" y="1226.306306" id="svg_74" font-size="24"  font-family="Arvo, sans-serif" text-anchor="start" xml:space="preserve" stroke="null" transform="matrix(0.33214777725425104,0,0,0.33214777725425104,100.24412461109556,15.684525597118585) ">DATA</text>
  <text fill="#ff7f00" stroke-width="0" stroke-opacity="null" fill-opacity="null" x="3033.341004" y="1249.0851" id="svg_75" font-size="24"  font-family="Arvo, sans-serif" text-anchor="start" xml:space="preserve" stroke="null" transform="matrix(0.33214777725425104,0,0,0.33214777725425104,100.24412461109556,15.684525597118585) ">SCIENCE</text>
  <text fill="#ff7f00" stroke-width="0" stroke-opacity="null" fill-opacity="null" x="2855.258108" y="500.052928" id="svg_78" font-size="24"  font-family="Arvo, sans-serif" text-anchor="start" xml:space="preserve" transform="matrix(0.33214777725425104,0,0,0.33214777725425104,100.24412461109556,15.684525597118585) " stroke="null">DATA</text>
  <text fill="#ff7f00" stroke-width="0" stroke-opacity="null" fill-opacity="null" x="2830" y="523" id="svg_79" font-size="24"  font-family="Arvo, sans-serif" text-anchor="start" xml:space="preserve" transform="matrix(0.33214777725425104,0,0,0.33214777725425104,100.24412461109556,15.684525597118585) " stroke="null">SCIENCE</text>
  <text fill="#ff7f00" stroke-width="0" stroke-opacity="null" fill-opacity="null" x="1380.424977" y="740.613375" id="svg_80" font-size="24"  font-family="Arvo, sans-serif" text-anchor="start" xml:space="preserve" transform="matrix(0.6537683655295481,0,0,0.6537683655295481,106.10221919752661,-123.91181706186923) " stroke="null">A.I.</text>
  <text fill="#ff7f00" stroke-width="0" stroke-opacity="null" fill-opacity="null" x="1093.215347" y="202.555739" id="svg_81" font-size="24"  font-family="Arvo, sans-serif" text-anchor="start" xml:space="preserve" transform="matrix(0.33214777725425104,0,0,0.33214777725425104,100.24412461109556,15.684525597118585) " stroke="null">DATA</text>
  <text fill="#ff7f00" stroke-width="0" stroke-opacity="null" fill-opacity="null" x="1075.012242" y="225.334533" id="svg_82" font-size="24"  font-family="Arvo, sans-serif" text-anchor="start" xml:space="preserve" transform="matrix(0.33214777725425104,0,0,0.33214777725425104,100.24412461109556,15.684525597118585) " stroke="null">SCIENCE</text>
  <ellipse fill="#fff" stroke-width="1.5" cx="610.6882" cy="306.481607" id="svg_2" rx="71.103324" ry="71.103324" stroke="null"/>
  <text fill="#ff7f00" stroke-width="0" stroke-opacity="null" x="854.999854" y="376.817845" id="svg_46" font-size="24" font-family="Arvo, sans-serif" text-anchor="start" xml:space="preserve" transform="matrix(1.150223456493823,0,0,1.150223456493823,-423.38931278761635,-117.09267206924707) " font-weight="bold" stroke="null">ZENITH</text>
  <ellipse fill="#fff" stroke="null" stroke-width="1.5" stroke-opacity="null" fill-opacity="null" cx="786" cy="91.7375" id="svg_7" rx="13.5" ry="13.5"/>
  <ellipse fill="#fff" stroke="null" stroke-width="1.5" stroke-opacity="null" fill-opacity="null" cx="1150" cy="76.7375" id="svg_8" rx="13.5" ry="13.5"/>
  <ellipse fill="#fff" stroke="null" stroke-width="1.5" stroke-opacity="null" fill-opacity="null" cx="1145" cy="168.7375" id="svg_9" rx="13.5" ry="13.5"/>
  <ellipse fill="#fff" stroke="null" stroke-width="1.5" stroke-opacity="null" fill-opacity="null" cx="1017" cy="253.7375" id="svg_12" rx="13.5" ry="13.5"/>
  <ellipse fill="#fff" stroke-width="1.5" stroke-opacity="null" fill-opacity="null" cx="830" cy="288.737516" id="svg_13" rx="30.5" ry="30.5" stroke="null"/>
  <ellipse fill="#fff" stroke="null" stroke-width="1.5" stroke-opacity="null" fill-opacity="null" cx="865" cy="220.7375" id="svg_17" rx="13.5" ry="13.5"/>
  <ellipse fill="#fff" stroke-width="1.5" stroke-opacity="null" fill-opacity="null" cx="962.5" cy="301.237497" id="svg_30" rx="10" ry="10" stroke="null"/>
  <ellipse fill="#fff" stroke="null" stroke-width="1.5" stroke-opacity="null" fill-opacity="null" cx="901" cy="335.7375" id="svg_31" rx="13.5" ry="13.5"/>
  <ellipse fill="#fff" stroke="null" stroke-width="1.5" stroke-opacity="null" fill-opacity="null" cx="784" cy="247.7375" id="svg_34" rx="13.5" ry="13.5" filter="url(#svg_34_blur)"/>
  <ellipse fill="#fff" stroke="null" stroke-width="1.5" stroke-opacity="null" fill-opacity="null" cx="408" cy="232.7375" id="svg_43" rx="13.5" ry="13.5"/>
  <ellipse fill="#fff" stroke="null" stroke-width="1.5" stroke-opacity="null" fill-opacity="null" cx="412" cy="377.7375" id="svg_47" rx="13.5" ry="13.5"/>
  <ellipse fill="#fff" stroke="null" stroke-width="1.5" stroke-opacity="null" fill-opacity="null" cx="514" cy="505.7375" id="svg_49" rx="13.5" ry="13.5"/>
  <ellipse fill="#fff" stroke-width="1.5" stroke-opacity="null" fill-opacity="null" cx="621" cy="563.737499" id="svg_50" rx="11.5" ry="11.5" stroke="null"/>
  <ellipse fill="#fff" stroke="null" stroke-width="1.5" stroke-opacity="null" fill-opacity="null" cx="121" cy="375.7375" id="svg_51" rx="13.5" ry="13.5"/>
  <ellipse fill="#fff" stroke="null" stroke-width="1.5" stroke-opacity="null" fill-opacity="null" cx="186" cy="505.7375" id="svg_54" rx="13.5" ry="13.5"/>
  <ellipse fill="#fff" stroke="null" stroke-width="1.5" stroke-opacity="null" fill-opacity="null" cx="355" cy="533.7375" id="svg_60" rx="13.5" ry="13.5"/>
  <ellipse fill="#fff" stroke="null" stroke-width="1.5" stroke-opacity="null" fill-opacity="null" cx="575" cy="85.7375" id="svg_68" rx="13.5" ry="13.5"/>
  <ellipse fill="#fff" stroke="null" stroke-width="1.5" stroke-opacity="null" fill-opacity="null" cx="255" cy="96.7375" id="svg_73" rx="13.5" ry="13.5"/>
  <ellipse fill="#fff" stroke="null" stroke-width="1.5" stroke-opacity="null" fill-opacity="null" cx="140" cy="150.7375" id="svg_76" rx="13.5" ry="13.5"/>
  <ellipse fill="#fff" stroke-width="1.5" stroke-opacity="null" fill-opacity="null" cx="86" cy="195.737501" id="svg_77" rx="7.5" ry="7.5" stroke="null"/>
  <ellipse fill="#fff" stroke-width="1.5" stroke-opacity="null" fill-opacity="null" cx="175" cy="45.737501" id="svg_83" rx="7.5" ry="7.5" stroke="null"/>
  <ellipse fill="#fff" stroke-width="1.5" stroke-opacity="null" fill-opacity="null" cx="559" cy="24.737501" id="svg_84" rx="7.5" ry="7.5" stroke="null"/>
  <ellipse fill="#fff" stroke-width="1.5" stroke-opacity="null" fill-opacity="null" cx="46" cy="416.737501" id="svg_85" rx="7.5" ry="7.5" stroke="null"/>
  <ellipse fill="#fff" stroke-width="1.5" stroke-opacity="null" fill-opacity="null" cx="456" cy="464.737501" id="svg_86" rx="7.5" ry="7.5" stroke="null"/>
  <ellipse fill="#fff" stroke-width="1.5" stroke-opacity="null" fill-opacity="null" cx="115" cy="483.737501" id="svg_87" rx="7.5" ry="7.5" stroke="null"/>
  <ellipse fill="#fff" stroke-width="1.5" stroke-opacity="null" fill-opacity="null" cx="1072" cy="295.737501" id="svg_88" rx="7.5" ry="7.5" stroke="null"/>
  <ellipse fill="#fff" stroke-width="1.5" stroke-opacity="null" fill-opacity="null" cx="722" cy="53.737501" id="svg_89" rx="7.5" ry="7.5" stroke="null"/>
  <path fill="#fff" stroke-width="1.5" stroke-opacity="null" fill-opacity="null" d="m75.98592,158.93992c0,0 71.29191,28.11613 71.52088,26.00317l-71.52087,-26.00317l-0.00001,0z" id="svg_90" transform="rotate(-61.05745315551758 111.74635314941403,171.9981994628906) " stroke="null"/>
  <path fill="#fff" stroke-width="1.5" stroke-opacity="null" fill-opacity="null" d="m173.60226,48.2006c0,0 78.03754,52.3158 78.28818,48.38421l-78.28818,-48.38421z" id="svg_92" stroke="null"/>
  <path fill="#fff" stroke-width="1.5" stroke-opacity="null" fill-opacity="null" d="m330.60227,39.2006c0,0 -74.4726,66.31095 -74.71179,61.3276l74.71179,-61.3276z" id="svg_93" stroke="null"/>
  <path fill="#fff" stroke-width="1.5" stroke-opacity="null" fill-opacity="null" d="m578.60227,99.20059c0,0 -100.38936,-33.80925 -100.71178,-31.26844l100.71178,31.26844z" id="svg_94" stroke="null" transform="rotate(-17.94420051574707 528.2463989257812,83.49819183349592) "/>
  <path fill="#fff" stroke-width="1.5" stroke-opacity="null" fill-opacity="null" d="m151.3949,181.35097c0,0 79.44775,-36.28616 79.70291,-33.55921l-79.70291,33.55921z" id="svg_96" transform="rotate(39.46269989013672 191.2463684082031,164.49819946289062) " stroke="null"/>
  <path fill="#fff" stroke-width="1.5" stroke-opacity="null" fill-opacity="null" d="m576.60227,83.20059c0,0 -19.64873,-61.79986 -19.71183,-57.15553l19.71183,57.15553z" id="svg_97" stroke="null"/>
  <ellipse fill="#fff" stroke-width="1.5" stroke-opacity="null" fill-opacity="null" cx="680.69009" cy="466.839126" id="svg_98" rx="44.779969" ry="44.779969" stroke="null"/>
  <ellipse fill="#fff" stroke-width="1.5" stroke-opacity="null" fill-opacity="null" cx="648.69009" cy="167.839126" id="svg_99" rx="44.779969" ry="44.779969" stroke="null"/>
  <path fill="#fff" stroke-width="1.5" stroke-opacity="null" fill-opacity="null" d="m440.35775,385.85279c0,0 57.62529,-166.02232 60.39636,-164.02556l-60.39636,164.02556z" id="svg_101" transform="rotate(69.89317321777344 470.55590820312506,303.8310852050781) " stroke="null"/>
  <path fill="#fff" stroke-width="1.5" stroke-opacity="null" fill-opacity="null" d="m616.20252,261.8392c0,0 25.48141,-72.88495 26.70675,-72.00836l-26.70675,72.00836z" id="svg_102" stroke="null"/>
  <path fill="#fff" stroke-width="1.5" stroke-opacity="null" fill-opacity="null" d="m292.20252,548.8392c0,0 25.48141,-72.88495 26.70675,-72.00836l-26.70675,72.00836z" id="svg_103" stroke="null"/>
  <path fill="#fff" stroke-width="1.5" stroke-opacity="null" fill-opacity="null" d="m668.2025,440.8392c0,0 -52.75639,-93.12622 -55.29332,-92.00619l55.29332,92.00619z" id="svg_104" stroke="null"/>
  <path fill="#fff" stroke-width="1.5" stroke-opacity="null" fill-opacity="null" d="m272.20252,355.8392c0,0 25.48141,-72.88495 26.70675,-72.00836l-26.70675,72.00836z" id="svg_105" stroke="null" transform="rotate(54.89060974121094 285.55590820312494,319.8311157226563) "/>
  <path fill="#fff" stroke-width="1.5" stroke-opacity="null" fill-opacity="null" d="m368.20252,289.8392c0,0 38.83907,-60.74019 40.70675,-60.00967l-40.70675,60.00967z" id="svg_106" stroke="null"/>
  <path fill="#fff" stroke-width="1.5" stroke-opacity="null" fill-opacity="null" d="m67.20252,432.8392c0,0 25.48141,-72.88495 26.70675,-72.00836l-26.70675,72.00836z" id="svg_108" stroke="null" transform="rotate(40.73280334472656 80.55589294433588,396.8311157226562) "/>
  <path fill="#fff" stroke-width="1.5" stroke-opacity="null" fill-opacity="null" d="m186.20252,506.8392c0,0 25.48141,-72.88495 26.70675,-72.00836l-26.70675,72.00836z" id="svg_109" stroke="null"/>
  <path fill="#fff" stroke-width="1.5" stroke-opacity="null" fill-opacity="null" d="m379.20252,385.8392c0,0 25.48141,-72.88495 26.70675,-72.00836l-26.70675,72.00836z" id="svg_107" stroke="null" transform="rotate(-60.21411895751953 392.5559082031249,349.8311157226562) "/>
  <path fill="#fff" stroke-width="1.5" stroke-opacity="null" fill-opacity="null" d="m454.20252,556.8392c0,0 25.48141,-72.88495 26.70675,-72.00836l-26.70675,72.00836z" id="svg_117" transform="rotate(54.884498596191406 467.5559082031251,520.8310546875) " stroke="null"/>
  <path fill="#fff" stroke-width="1.5" stroke-opacity="null" fill-opacity="null" d="m807.20252,115.8392c0,0 25.48141,-72.88495 26.70675,-72.00836l-26.70675,72.00836z" id="svg_118" stroke="null" transform="rotate(45.03556823730469 820.5559082031251,79.83110046386722) "/>
  <path fill="#fff" stroke-width="1.5" stroke-opacity="null" fill-opacity="null" d="m138.20252,531.8392c0,0 25.48141,-72.88495 26.70675,-72.00836l-26.70675,72.00836z" id="svg_119" transform="rotate(89.70718383789062 151.55589294433597,495.8310546875) " stroke="null"/>
  <path fill="#fff" stroke-width="1.5" stroke-opacity="null" fill-opacity="null" d="m469.20252,519.8392c0,0 25.48141,-72.88495 26.70675,-72.00836l-26.70675,72.00836z" id="svg_121" stroke="null" transform="rotate(103.1404800415039 482.555908203125,483.8310546875) "/>
  <path fill="#fff" stroke-width="1.5" stroke-opacity="null" fill-opacity="null" d="m306.20252,587.8392c0,0 25.48141,-72.88495 26.70675,-72.00836l-26.70675,72.00836z" id="svg_122" stroke="null" transform="rotate(42.49687576293945 319.55590820312466,551.8310546875001) "/>
  <ellipse fill="#ffffff" stroke-width="1.5" stroke-opacity="null" cx="589.83792" cy="480.644211" id="svg_123" rx="21.785207" ry="21.785207" stroke="null"/>
  <ellipse fill="#ffffff" stroke-width="1.5" stroke-opacity="null" cx="778.83792" cy="432.644211" id="svg_124" rx="21.785207" ry="21.785207" stroke="null"/>
  <ellipse fill="#fff" stroke-width="1.5" stroke-opacity="null" fill-opacity="null" cx="824" cy="503.737499" id="svg_125" rx="11.5" ry="11.5" stroke="null"/>
  <ellipse fill="#fff" stroke-width="1.5" stroke-opacity="null" fill-opacity="null" cx="1073" cy="507.737499" id="svg_126" rx="11.5" ry="11.5" stroke="null"/>
  <ellipse fill="#fff" stroke-width="1.5" stroke-opacity="null" fill-opacity="null" cx="1166" cy="492.737499" id="svg_127" rx="11.5" ry="11.5" stroke="null"/>
  <ellipse fill="#fff" stroke-width="1.5" stroke-opacity="null" fill-opacity="null" cx="1093" cy="366.737499" id="svg_128" rx="11.5" ry="11.5" stroke="null"/>
  <path fill="#fff" stroke-width="1.5" stroke-opacity="null" fill-opacity="null" d="m747.20252,113.8392c0,0 25.48141,-72.88495 26.70675,-72.00836l-26.70675,72.00836z" id="svg_129" stroke="null" transform="rotate(-77.27703094482422 760.555908203125,77.8311004638672) "/>
  <path fill="#fff" stroke-width="1.5" stroke-opacity="null" fill-opacity="null" d="m1112.20252,104.8392c0,0 25.48141,-72.88495 26.70675,-72.00836l-26.70675,72.00836z" id="svg_130" stroke="null" transform="rotate(-85.92707061767578 1125.5559082031248,68.83110046386713) "/>
  <path fill="#fff" stroke-width="1.5" stroke-opacity="null" fill-opacity="null" d="m1054.20252,396.8392c0,0 25.48141,-72.88495 26.70675,-72.00836l-26.70675,72.00836z" id="svg_131" stroke="null" transform="rotate(-100.60127258300781 1067.5559082031252,360.8311157226563) "/>
  <path fill="#fff" stroke-width="1.5" stroke-opacity="null" fill-opacity="null" d="m1071.20252,369.8392c0,0 25.48141,-72.88495 26.70675,-72.00836l-26.70675,72.00836z" id="svg_132" stroke="null" transform="rotate(141.106201171875 1084.555908203125,333.83111572265625) "/>
  <path fill="#fff" stroke-width="1.5" stroke-opacity="null" fill-opacity="null" d="m608.20252,513.8392c0,0 25.48141,-72.88495 26.70675,-72.00836l-26.70675,72.00836z" id="svg_133" stroke="null" transform="rotate(74.79732513427734 621.5559082031249,477.8311767578125) "/>
  <path fill="#fff" stroke-width="1.5" stroke-opacity="null" fill-opacity="null" d="m595.20252,565.8392c0,0 25.48141,-72.88495 26.70675,-72.00836l-26.70675,72.00836z" id="svg_134" stroke="null" transform="rotate(-43.13722610473633 608.555908203125,529.8310546875) "/>
  <path fill="#fff" stroke-width="1.5" stroke-opacity="null" fill-opacity="null" d="m727.20252,484.8392c0,0 25.48141,-72.88495 26.70675,-72.00836l-26.70675,72.00836z" id="svg_135" stroke="null" transform="rotate(-136.58963012695312 740.555908203125,448.83117675781244) "/>
  <path fill="#fff" stroke-width="1.5" stroke-opacity="null" fill-opacity="null" d="m790.20252,505.8392c0,0 25.48141,-72.88495 26.70675,-72.00836l-26.70675,72.00836z" id="svg_136" stroke="null" transform="rotate(-51.83876419067383 803.5559082031247,469.8311767578124) "/>
  <path fill="#fff" stroke-width="1.5" stroke-opacity="null" fill-opacity="null" d="m713.93005,367.71469c0,0 52.71666,-135.38086 55.25168,-133.75263l-55.25168,133.75263z" id="svg_137" transform="rotate(-116.49384307861328 741.5559082031249,300.8311157226562) " stroke="null"/>
  <path fill="#fff" stroke-width="1.5" stroke-opacity="null" fill-opacity="null" d="m145.74514,447.70781c0,0 32.07892,-87.79996 33.62152,-86.74399l-33.62152,86.74399z" id="svg_138" transform="rotate(107.374267578125 162.55589294433594,404.3311157226563) " stroke="null"/>
  <ellipse fill="#fff" stroke-width="1.5" stroke-opacity="null" fill-opacity="null" cx="967" cy="223.737501" id="svg_139" rx="7.5" ry="7.5" stroke="null"/>
  <ellipse fill="#fff" stroke-width="1.5" stroke-opacity="null" fill-opacity="null" cx="1129" cy="235.737501" id="svg_140" rx="7.5" ry="7.5" stroke="null"/>
  <path fill="#fff" stroke-width="1.5" stroke-opacity="null" fill-opacity="null" d="m1020.20252,260.8392c0,0 25.48141,-72.88495 26.70675,-72.00836l-26.70675,72.00836z" id="svg_141" stroke="null" transform="rotate(13.994006156921387 1033.5559082031252,224.83110046386693) "/>
  <path fill="#fff" stroke-width="1.5" stroke-opacity="null" fill-opacity="null" d="m982.71547,269.21209c0,0 19.73203,-57.44679 20.6809,-56.75588l-20.6809,56.75588z" id="svg_142" transform="rotate(106.01307678222656 993.0559082031249,240.8310852050781) " stroke="null"/>
  <path fill="#fff" stroke-width="1.5" stroke-opacity="null" fill-opacity="null" d="m1100.20252,208.8392c0,0 25.48141,-72.88495 26.70675,-72.00836l-26.70675,72.00836z" id="svg_143" stroke="null" transform="rotate(-117.58123779296875 1113.555908203125,172.83110046386724) "/>
  <path fill="#fff" stroke-width="1.5" stroke-opacity="null" fill-opacity="null" d="m1124.20252,243.8392c0,0 25.48141,-72.88495 26.70675,-72.00836l-26.70675,72.00836z" id="svg_144" stroke="null" transform="rotate(-1.979996681213379 1137.555908203125,207.83110046386227) "/>
  <path fill="#fff" stroke-width="1.5" stroke-opacity="null" fill-opacity="null" d="m1041.20252,561.8392c0,0 25.48141,-72.88495 26.70675,-72.00836l-26.70675,72.00836z" id="svg_145" stroke="null" transform="rotate(-153.2733917236328 1054.555908203125,525.8310546875001) "/>
  <path fill="#fff" stroke-width="1.5" stroke-opacity="null" fill-opacity="null" d="m1135.20252,498.8392c0,0 25.48141,-72.88495 26.70675,-72.00836l-26.70675,72.00836z" id="svg_146" stroke="null" transform="rotate(-55.82172393798828 1148.555908203125,462.8311767578124) "/>
  <path fill="#fff" stroke-width="1.5" stroke-opacity="null" fill-opacity="null" d="m795.20252,302.8392c0,0 25.48141,-72.88495 26.70675,-72.00836l-26.70675,72.00836z" id="svg_147" stroke="null" transform="rotate(107.82952117919922 808.5559082031249,266.8311157226562) "/>
  <path fill="#fff" stroke-width="1.5" stroke-opacity="null" fill-opacity="null" d="m834.20252,289.8392c0,0 25.48141,-72.88495 26.70675,-72.00836l-26.70675,72.00836z" id="svg_148" transform="rotate(-173.2205047607422 847.5559082031249,253.8311004638671) " stroke="null"/>
  <path fill="#fff" stroke-width="1.5" stroke-opacity="null" fill-opacity="null" d="m921.20602,352.89829c0,0 26.42886,-73.00443 27.69976,-72.1264l-27.69976,72.1264z" id="svg_149" transform="rotate(-142.27308654785156 935.0559082031249,316.8311767578125) " stroke="null"/>
  <path fill="#fff" stroke-width="1.5" stroke-opacity="null" fill-opacity="null" d="m855.20252,350.8392c0,0 25.48141,-72.88495 26.70675,-72.00836l-26.70675,72.00836z" id="svg_150" transform="rotate(-74.54120635986328 868.5559082031249,314.83111572265614) " stroke="null"/>
  <ellipse fill="#ffffff" stroke-width="1.5" stroke-opacity="null" cx="237.775569" cy="330.185694" id="svg_151" rx="21.785207" ry="21.785207" stroke="null"/>
  <ellipse fill="#ffffff" stroke-width="1.5" stroke-opacity="null" cx="132.775574" cy="270.185692" id="svg_152" rx="11.785208" ry="11.785208" stroke="null"/>
  <path fill="#fff" stroke-width="1.5" stroke-opacity="null" fill-opacity="null" d="m164.19095,345.63302c0,0 32.18235,-92.70886 33.72993,-91.59385l-33.72993,91.59385z" id="svg_154" transform="rotate(99.62847137451172 181.055908203125,299.83111572265625) " stroke="null"/>
 </g>
</svg>